# xmcd CD Database Entry
#
# Track frame offsets:
# 150
# 16590
# 36317
# 52670
# 69917
# 87425
# 105492
# 124100
# 140810
# 154320
# 173632
#
# Disc length: 2557 seconds
#
# Revision: 1
# Processed by: cddbd v1.4b41PL1 Copyright (c) Steve Scherf et al.
# Submitted via: tcd 2.0b
#
DISCID=8609fb0b
DTITLE=isa/pretender
DYEAR=1900
DGENRE=
TTITLE0=Pretender
TTITLE1=Don't say goodbye
TTITLE2=Steal a little kiss
TTITLE3=Until you loved me
TTITLE4=Right guy, wrong night
TTITLE5=Everything I do
TTITLE6=Stay
TTITLE7=Second hand heart
TTITLE8=Been saving my love
TTITLE9=By the way
TTITLE10=Help me help you
EXTD=1978/7/5 birth\n
EXTT0=
EXTT1=
EXTT2=
EXTT3=
EXTT4=
EXTT5=
EXTT6=
EXTT7=
EXTT8=
EXTT9=
EXTT10=
PLAYORDER=
